<svg width="45" height="45" viewBox="0 0 45 45" fill="none" xmlns="http://www.w3.org/2000/svg">
<g id="twemoji:money-bag">
<path id="Vector" d="M39.3627 29.5628C38.6396 21.5603 34.6492 17.5457 34.6492 17.5457L27.394 7.87212H17.7204L10.4652 17.5457C10.4652 17.5457 8.74931 19.2785 7.36115 22.7151C4.95605 23.5131 3.20996 25.755 3.20996 28.4285C3.211 29.2597 3.38445 30.0816 3.71933 30.8424C4.05422 31.6031 4.54327 32.2861 5.15557 32.8482C4.67867 33.7176 4.4256 34.6921 4.41916 35.6838C4.41916 38.0514 5.79281 40.0804 7.7747 41.072C9.3261 43.396 11.3987 44.1482 12.8836 44.1482H32.2308C33.8983 44.1482 36.3094 43.2062 37.8874 40.1457C40.2224 39.3101 41.9044 37.0985 41.9044 34.4745C41.9032 33.5125 41.6718 32.5646 41.2297 31.7102C40.7875 30.8557 40.1474 30.1194 39.3627 29.5628ZM22.5572 7.87212C23.2222 7.87212 23.8365 7.68107 24.371 7.36909C24.9067 7.68107 25.5209 7.87212 26.1848 7.87212C28.1884 7.87212 31.0216 5.03775 31.0216 3.03532C31.0216 3.03532 31.0216 0.616913 28.6032 0.616913C27.6503 0.616913 27.394 1.82611 26.1848 1.82611C24.9756 1.82611 24.9756 0.616913 22.5572 0.616913C20.1388 0.616913 20.1388 1.82611 18.9296 1.82611C17.7204 1.82611 17.4652 0.616913 16.5112 0.616913C14.0928 0.616913 14.0928 3.03532 14.0928 3.03532C14.0928 5.03775 16.9271 7.87212 18.9296 7.87212C19.5934 7.87212 20.2077 7.68107 20.7434 7.36909C21.2791 7.68107 21.8933 7.87212 22.5572 7.87212Z" fill="#FDD888"/>
<path id="Vector_2" d="M29.8122 7.87213C29.8122 8.19283 29.6848 8.5004 29.458 8.72717C29.2312 8.95394 28.9237 9.08134 28.603 9.08134H16.511C16.1903 9.08134 15.8827 8.95394 15.6559 8.72717C15.4292 8.5004 15.3018 8.19283 15.3018 7.87213C15.3018 7.55143 15.4292 7.24387 15.6559 7.0171C15.8827 6.79033 16.1903 6.66293 16.511 6.66293H28.603C28.9237 6.66293 29.2312 6.79033 29.458 7.0171C29.6848 7.24387 29.8122 7.55143 29.8122 7.87213Z" fill="#BF6952"/>
<path id="Vector_3" d="M29.6922 30.2931C29.6922 24.8795 19.3161 25.2326 19.3161 21.9666C19.3161 20.3849 20.8892 19.6122 22.7151 19.6122C25.7841 19.6122 26.3306 21.5095 27.72 21.5095C28.7031 21.5095 29.1771 20.9134 29.1771 20.2447C29.1771 18.692 26.7297 17.5167 24.3826 17.1104V15.611C24.3826 14.6763 23.5966 13.9181 22.6244 13.9181C21.651 13.9181 20.8638 14.6763 20.8638 15.611V17.1624C18.3052 17.7223 16.1032 19.4297 16.1032 22.212C16.1032 27.4104 26.4769 27.2 26.4769 30.8518C26.4769 32.1178 25.0525 33.3826 22.7151 33.3826C19.2072 33.3826 18.0391 31.0985 16.6147 31.0985C15.9206 31.0985 15.3003 31.6595 15.3003 32.506C15.3003 33.8518 17.6437 35.4697 20.8662 35.9207L20.865 35.9328V37.6233C20.865 38.5568 21.6534 39.3162 22.6256 39.3162C23.5978 39.3162 24.385 38.5568 24.385 37.6233V35.9328C24.385 35.9123 24.3753 35.8966 24.3741 35.8784C27.2738 35.3585 29.6922 33.5422 29.6922 30.2931Z" fill="#67757F"/>
</g>
</svg>
