<svg width="20" height="20" viewBox="0 0 20 20" fill="none" xmlns="http://www.w3.org/2000/svg">
<rect x="0.875" y="0.830933" width="18.6562" height="18.6562" rx="9.32812" fill="#FF5959"/>
<path fill-rule="evenodd" clip-rule="evenodd" d="M4.73828 5.39149C4.99716 5.39149 5.20703 5.60136 5.20703 5.86024V8.20399H7.55078C7.80966 8.20399 8.01953 8.41386 8.01953 8.67274C8.01953 8.93162 7.80966 9.14149 7.55078 9.14149H4.73828C4.4794 9.14149 4.26953 8.93162 4.26953 8.67274V5.86024C4.26953 5.60136 4.4794 5.39149 4.73828 5.39149Z" fill="white"/>
<path fill-rule="evenodd" clip-rule="evenodd" d="M9.2789 4.81435C10.3702 4.59694 11.5014 4.70807 12.5295 5.13367C13.5576 5.55928 14.4364 6.28025 15.0547 7.20538C15.673 8.1305 16.003 9.21822 16.003 10.3309C16.003 11.4437 15.673 12.5314 15.0547 13.4565C14.4364 14.3816 13.5576 15.1026 12.5295 15.5282C11.5014 15.9538 10.3702 16.0649 9.2789 15.8475C8.18764 15.6301 7.18536 15.0939 6.39888 14.3068C6.21589 14.1237 6.21602 13.8269 6.39915 13.6439C6.58228 13.4609 6.87908 13.461 7.06206 13.6441C7.71747 14.3001 8.55269 14.7469 9.46208 14.9281C10.3715 15.1093 11.3142 15.0167 12.1709 14.662C13.0277 14.3073 13.76 13.7065 14.2752 12.9356C14.7905 12.1646 15.0655 11.2582 15.0655 10.3309C15.0655 9.40367 14.7905 8.49724 14.2752 7.7263C13.76 6.95536 13.0277 6.35456 12.1709 5.99988C11.3142 5.64521 10.3715 5.55261 9.46208 5.73378C8.55269 5.91496 7.71747 6.36178 7.06206 7.01773L7.06144 7.01835L5.06925 9.00468C4.88592 9.18746 4.58913 9.18703 4.40634 9.0037C4.22355 8.82037 4.22399 8.52358 4.40731 8.34079L6.39888 6.35508C6.39898 6.35498 6.39877 6.35519 6.39888 6.35508C7.18532 5.56813 8.18778 5.03174 9.2789 4.81435Z" fill="white"/>
</svg>
