<svg width="20" height="20" viewBox="0 0 20 20" fill="none" xmlns="http://www.w3.org/2000/svg">
<rect x="0.875" y="0.705933" width="18.6562" height="18.6562" rx="9.32812" fill="#FF6B31"/>
<path fill-rule="evenodd" clip-rule="evenodd" d="M10.375 5.04968C7.52728 5.04968 5.21875 7.35821 5.21875 10.2059C5.21875 13.0537 7.52728 15.3622 10.375 15.3622C13.2227 15.3622 15.5312 13.0537 15.5312 10.2059C15.5312 7.35821 13.2227 5.04968 10.375 5.04968ZM4.28125 10.2059C4.28125 6.84045 7.00951 4.11218 10.375 4.11218C13.7405 4.11218 16.4688 6.84045 16.4688 10.2059C16.4688 13.5714 13.7405 16.2997 10.375 16.2997C7.00951 16.2997 4.28125 13.5714 4.28125 10.2059Z" fill="white"/>
<path d="M8.26562 10.9091C8.65395 10.9091 8.96875 10.5943 8.96875 10.2059C8.96875 9.81761 8.65395 9.50281 8.26562 9.50281C7.8773 9.50281 7.5625 9.81761 7.5625 10.2059C7.5625 10.5943 7.8773 10.9091 8.26562 10.9091Z" fill="white"/>
<path d="M12.4844 10.9091C12.8727 10.9091 13.1875 10.5943 13.1875 10.2059C13.1875 9.81761 12.8727 9.50281 12.4844 9.50281C12.0961 9.50281 11.7812 9.81761 11.7812 10.2059C11.7812 10.5943 12.0961 10.9091 12.4844 10.9091Z" fill="white"/>
<path fill-rule="evenodd" clip-rule="evenodd" d="M8.43184 12.2904C8.57506 12.0747 8.86599 12.016 9.08165 12.1593C9.46497 12.4138 9.91489 12.5496 10.3751 12.5496C10.8352 12.5496 11.2851 12.4138 11.6685 12.1593C11.8841 12.016 12.175 12.0747 12.3183 12.2904C12.4615 12.5061 12.4028 12.797 12.1871 12.9402C11.6501 13.2969 11.0197 13.4871 10.3751 13.4871C9.73037 13.4871 9.10002 13.2969 8.56299 12.9402C8.34733 12.797 8.28861 12.5061 8.43184 12.2904Z" fill="white"/>
<path fill-rule="evenodd" clip-rule="evenodd" d="M10.6678 4.21492C10.87 4.37664 10.9028 4.67162 10.741 4.87378C10.3205 5.39944 10.1115 5.92332 10.0076 6.31306C9.95566 6.50789 9.93025 6.66816 9.91787 6.77651C9.91168 6.83061 9.90878 6.87152 9.90742 6.89702C9.90674 6.90976 9.90644 6.91863 9.90632 6.92335L9.90625 6.92663C9.90676 7.05025 9.95609 7.1687 10.0435 7.25616C10.1315 7.34406 10.2507 7.39345 10.375 7.39345C10.4993 7.39345 10.6185 7.34406 10.7065 7.25616C10.7944 7.16825 10.8438 7.04902 10.8438 6.9247C10.8438 6.66582 11.0536 6.45595 11.3125 6.45595C11.5714 6.45595 11.7812 6.66582 11.7812 6.9247C11.7812 7.29766 11.6331 7.65535 11.3694 7.91907C11.1056 8.18279 10.748 8.33095 10.375 8.33095C10.002 8.33095 9.64435 8.18279 9.38063 7.91907C9.11691 7.65535 8.96875 7.29766 8.96875 6.9247H9.4375C8.96875 6.9247 8.96875 6.92489 8.96875 6.9247L8.96875 6.92391L8.96875 6.92302L8.96876 6.92089L8.96882 6.91535L8.96913 6.89916C8.96947 6.88614 8.97009 6.86868 8.97125 6.84709C8.97355 6.80393 8.97796 6.74413 8.98643 6.67006C9.00334 6.52206 9.03653 6.31612 9.10176 6.0715C9.23221 5.58233 9.492 4.93434 10.009 4.28812C10.1707 4.08597 10.4657 4.05319 10.6678 4.21492Z" fill="white"/>
</svg>
