<svg width="19" height="20" viewBox="0 0 19 20" fill="none" xmlns="http://www.w3.org/2000/svg">
<rect x="0.125" y="0.705933" width="18.6562" height="18.6562" rx="9.32812" fill="#31C1B2"/>
<path d="M4.625 15.8309C4.28125 15.8309 3.98688 15.7084 3.74188 15.4634C3.49688 15.2184 3.37458 14.9243 3.375 14.5809V7.70593C3.375 7.36218 3.4975 7.06781 3.7425 6.82281C3.9875 6.57781 4.28167 6.45552 4.625 6.45593H7.125V5.20593C7.125 4.86218 7.2475 4.56781 7.4925 4.32281C7.7375 4.07781 8.03167 3.95552 8.375 3.95593H10.875C11.2188 3.95593 11.5131 4.07843 11.7581 4.32343C12.0031 4.56843 12.1254 4.8626 12.125 5.20593V6.45593H14.625C14.9688 6.45593 15.2631 6.57843 15.5081 6.82343C15.7531 7.06843 15.8754 7.3626 15.875 7.70593V14.5809C15.875 14.9247 15.7525 15.2191 15.5075 15.4641C15.2625 15.7091 14.9683 15.8314 14.625 15.8309H4.625ZM4.625 14.5809H14.625V7.70593H4.625V14.5809ZM8.375 6.45593H10.875V5.20593H8.375V6.45593Z" fill="white"/>
</svg>
