<svg width="20" height="20" viewBox="0 0 20 20" fill="none" xmlns="http://www.w3.org/2000/svg">
<rect x="0.625" y="0.830933" width="18.6562" height="18.6562" rx="9.32812" fill="#FFA638"/>
<path fill-rule="evenodd" clip-rule="evenodd" d="M17.1562 8.86218C17.1562 8.6033 16.9464 8.39343 16.6875 8.39343H3.5625C3.30362 8.39343 3.09375 8.6033 3.09375 8.86218C3.09375 9.12107 3.30362 9.33093 3.5625 9.33093H16.6875C16.9464 9.33093 17.1562 9.12107 17.1562 8.86218Z" fill="white"/>
<path fill-rule="evenodd" clip-rule="evenodd" d="M6.84375 12.1434C6.58487 12.1434 6.375 12.3533 6.375 12.6122V14.0184H4.96875V12.6122C4.96875 12.3533 4.75888 12.1434 4.5 12.1434C4.24112 12.1434 4.03125 12.3533 4.03125 12.6122V14.0184C4.03125 14.2671 4.13002 14.5055 4.30584 14.6813C4.48165 14.8572 4.72011 14.9559 4.96875 14.9559H6.375C6.62364 14.9559 6.8621 14.8572 7.03791 14.6813C7.21373 14.5055 7.3125 14.2671 7.3125 14.0184V12.6122C7.3125 12.3533 7.10263 12.1434 6.84375 12.1434Z" fill="white"/>
<path fill-rule="evenodd" clip-rule="evenodd" d="M15.75 12.1434C15.4911 12.1434 15.2812 12.3533 15.2812 12.6122V14.0184H13.875V12.6122C13.875 12.3533 13.6651 12.1434 13.4062 12.1434C13.1474 12.1434 12.9375 12.3533 12.9375 12.6122V14.0184C12.9375 14.2671 13.0363 14.5055 13.2121 14.6813C13.3879 14.8572 13.6264 14.9559 13.875 14.9559H15.2812C15.5299 14.9559 15.7683 14.8572 15.9442 14.6813C16.12 14.5055 16.2188 14.2671 16.2188 14.0184V12.6122C16.2188 12.3533 16.0089 12.1434 15.75 12.1434Z" fill="white"/>
<path fill-rule="evenodd" clip-rule="evenodd" d="M14.3438 10.7372C14.3438 10.4783 14.1339 10.2684 13.875 10.2684H12.9375C12.6786 10.2684 12.4688 10.4783 12.4688 10.7372C12.4688 10.9961 12.6786 11.2059 12.9375 11.2059H13.875C14.1339 11.2059 14.3438 10.9961 14.3438 10.7372Z" fill="white"/>
<path fill-rule="evenodd" clip-rule="evenodd" d="M7.78125 10.7372C7.78125 10.4783 7.57138 10.2684 7.3125 10.2684H6.375C6.11612 10.2684 5.90625 10.4783 5.90625 10.7372C5.90625 10.9961 6.11612 11.2059 6.375 11.2059H7.3125C7.57138 11.2059 7.78125 10.9961 7.78125 10.7372Z" fill="white"/>
<path fill-rule="evenodd" clip-rule="evenodd" d="M13.5703 4.17468H6.6778C6.49603 4.17542 6.31839 4.22898 6.1665 4.32885C6.01514 4.42837 5.89587 4.56961 5.82309 4.73546C5.82284 4.73604 5.82259 4.73661 5.82233 4.73719L4.07173 8.67163C4.04504 8.73161 4.03125 8.79653 4.03125 8.86218V12.6122C4.03125 12.8711 4.24112 13.0809 4.5 13.0809H15.75C16.0089 13.0809 16.2188 12.8711 16.2188 12.6122V8.86218C16.2188 8.79653 16.205 8.73161 16.1783 8.67163L14.4269 4.73539C14.3541 4.56956 14.2348 4.42836 14.0835 4.32885C13.9316 4.22898 13.754 4.17542 13.5722 4.17469L13.5703 4.17468ZM13.5684 5.11218L13.5698 5.11524L15.2812 8.96176V12.1434H4.96875V8.96176L6.68158 5.11218L13.5684 5.11218Z" fill="white"/>
</svg>
