<svg width="19" height="20" viewBox="0 0 19 20" fill="none" xmlns="http://www.w3.org/2000/svg">
<rect x="0.125" y="0.830933" width="18.6562" height="18.6562" rx="9.32812" fill="#40B54A"/>
<path fill-rule="evenodd" clip-rule="evenodd" d="M8.53502 4.52558C8.69624 4.37838 8.90667 4.29675 9.125 4.29675C9.34333 4.29675 9.55376 4.37838 9.71498 4.52557L9.71562 4.52616L14.0895 8.50096L14.0957 8.50667C14.1822 8.58832 14.2514 8.68645 14.2994 8.79527C14.3473 8.90409 14.373 9.02141 14.3749 9.14032L14.375 9.14739V14.206C14.375 14.4381 14.2828 14.6606 14.1187 14.8247C13.9546 14.9888 13.7321 15.081 13.5 15.081H10.875C10.6429 15.081 10.4204 14.9888 10.2563 14.8247C10.0922 14.6606 10 14.4381 10 14.206V11.581H8.25V14.206C8.25 14.4381 8.15781 14.6606 7.99372 14.8247C7.82962 14.9888 7.60706 15.081 7.375 15.081H4.75C4.51794 15.081 4.29538 14.9888 4.13128 14.8247C3.96719 14.6606 3.875 14.4381 3.875 14.206V9.14739L3.87506 9.14032C3.87698 9.02141 3.90268 8.90409 3.95063 8.79527C3.99859 8.68645 4.06783 8.58832 4.15429 8.50667L4.16045 8.50096L8.53437 4.52616L8.53502 4.52558ZM4.75415 9.14377L9.12392 5.17274L9.125 5.17175L9.12608 5.17274L13.4959 9.14377C13.497 9.14506 13.498 9.14653 13.4987 9.14812C13.4994 9.14978 13.4998 9.15154 13.5 9.15334V14.206H10.875V11.581C10.875 11.3489 10.7828 11.1264 10.6187 10.9623C10.4546 10.7982 10.2321 10.706 10 10.706H8.25C8.01794 10.706 7.79538 10.7982 7.63128 10.9623C7.46719 11.1264 7.375 11.3489 7.375 11.581V14.206H4.75V9.15334C4.75015 9.15154 4.7506 9.14978 4.75133 9.14812C4.75204 9.14653 4.75299 9.14506 4.75415 9.14377Z" fill="white"/>
</svg>
