<svg width="20" height="20" viewBox="0 0 20 20" fill="none" xmlns="http://www.w3.org/2000/svg">
<rect x="0.375" y="0.830933" width="18.6562" height="18.6562" rx="9.32812" fill="#248BCC"/>
<path d="M5.75 4.33093C5.45163 4.33093 5.16548 4.44946 4.9545 4.66044C4.74353 4.87142 4.625 5.15756 4.625 5.45593V15.2059C4.625 15.5043 4.74353 15.7904 4.9545 16.0014C5.16548 16.2124 5.45163 16.3309 5.75 16.3309H11C11.2984 16.3309 11.5845 16.2124 11.7955 16.0014C12.0065 15.7904 12.125 15.5043 12.125 15.2059V14.0809C12.125 13.9815 12.0855 13.8861 12.0152 13.8158C11.9448 13.7454 11.8495 13.7059 11.75 13.7059C11.4402 13.7059 11.2422 13.6294 11.108 13.5289C10.9707 13.4262 10.8665 13.2724 10.79 13.0617C10.6295 12.6207 10.625 12.0364 10.625 11.4559C10.625 11.4066 10.6152 11.3578 10.5963 11.3122C10.5774 11.2666 10.5497 11.2253 10.5147 11.1904L10.3003 10.9752L9.3905 10.0654C9.04025 9.71518 8.9375 9.48043 8.918 9.34918C8.903 9.24418 8.9345 9.17368 9.0095 9.10168C9.17 8.94793 9.28475 8.84368 9.4145 8.81218C9.49175 8.79268 9.668 8.77918 9.9845 9.09568L12.2345 11.3457C12.3048 11.4161 12.4002 11.4557 12.4997 11.4558C12.549 11.4558 12.5978 11.4461 12.6433 11.4273C12.6889 11.4085 12.7303 11.3809 12.7651 11.3461C12.8 11.3112 12.8277 11.2699 12.8465 11.2244C12.8654 11.1789 12.8752 11.1301 12.8752 11.0808C12.8752 11.0315 12.8656 10.9828 12.8467 10.9372C12.8279 10.8917 12.8003 10.8503 12.7655 10.8154L12.125 10.1757V7.86118L14.045 9.78118C14.1496 9.88564 14.2326 10.0097 14.2892 10.1462C14.3458 10.2828 14.375 10.4291 14.375 10.5769V15.9559C14.375 16.0554 14.4145 16.1508 14.4848 16.2211C14.5552 16.2914 14.6505 16.3309 14.75 16.3309C14.8495 16.3309 14.9448 16.2914 15.0152 16.2211C15.0855 16.1508 15.125 16.0554 15.125 15.9559V10.5769C15.1249 10.0799 14.9274 9.6032 14.576 9.25168L12.125 6.80068V5.45593C12.125 5.15756 12.0065 4.87142 11.7955 4.66044C11.5845 4.44946 11.2984 4.33093 11 4.33093H5.75ZM11.375 6.95593V9.42568L10.5155 8.56543C10.0813 8.13193 9.65 7.98268 9.23675 8.08318C9.15557 8.10322 9.07684 8.13214 9.002 8.16943C8.66675 8.07232 8.3135 8.0545 7.97017 8.1174C7.62685 8.18029 7.30286 8.32217 7.0238 8.53183C6.74474 8.74149 6.51827 9.01317 6.36228 9.32541C6.20629 9.63765 6.12506 9.98189 6.125 10.3309C6.12497 10.7659 6.25101 11.1915 6.48787 11.5563C6.72473 11.9212 7.06226 12.2095 7.45959 12.3865C7.85692 12.5634 8.29703 12.6214 8.72665 12.5534C9.15626 12.4855 9.55696 12.2944 9.88025 12.0034C9.893 12.4369 9.9365 12.9109 10.085 13.3182C10.196 13.6234 10.373 13.9152 10.658 14.1282L10.6625 14.1327C10.4341 14.2045 10.2346 14.3473 10.093 14.5403C9.95135 14.7334 9.87499 14.9665 9.875 15.2059V15.5809H6.875V15.2059C6.875 14.9076 6.75647 14.6214 6.5455 14.4104C6.33452 14.1995 6.04837 14.0809 5.75 14.0809H5.375V6.58093H5.75C6.04837 6.58093 6.33452 6.46241 6.5455 6.25143C6.75647 6.04045 6.875 5.7543 6.875 5.45593V5.08093H9.875V5.45593C9.875 5.7543 9.99353 6.04045 10.2045 6.25143C10.4155 6.46241 10.7016 6.58093 11 6.58093H11.375V6.95593ZM11.375 15.2059V15.2127C11.3732 15.311 11.3329 15.4046 11.2628 15.4735C11.1927 15.5424 11.0983 15.5809 11 15.5809H10.625V15.2059C10.625 15.1065 10.6645 15.0111 10.7348 14.9408C10.8052 14.8704 10.9005 14.8309 11 14.8309H11.375V15.2059ZM6.875 10.3309C6.87501 9.94947 7.02034 9.58234 7.28145 9.30424C7.54255 9.02614 7.8998 8.85796 8.2805 8.83393C8.1875 9.00643 8.14025 9.21643 8.17625 9.45868C8.2295 9.82018 8.45975 10.1959 8.8595 10.5957L9.53975 11.2759C9.34447 11.5166 9.07944 11.6908 8.78109 11.7747C8.48275 11.8586 8.16574 11.8481 7.87365 11.7445C7.58155 11.6409 7.32872 11.4494 7.14989 11.1963C6.97107 10.9431 6.87504 10.6408 6.875 10.3309ZM6.125 5.08093V5.45593C6.125 5.55539 6.08549 5.65077 6.01516 5.7211C5.94484 5.79142 5.84946 5.83093 5.75 5.83093H5.375V5.45593C5.375 5.35648 5.41451 5.26109 5.48484 5.19077C5.55516 5.12044 5.65054 5.08093 5.75 5.08093H6.125ZM5.375 14.8309H5.75C5.84946 14.8309 5.94484 14.8704 6.01516 14.9408C6.08549 15.0111 6.125 15.1065 6.125 15.2059V15.5809H5.75C5.65054 15.5809 5.55516 15.5414 5.48484 15.4711C5.41451 15.4008 5.375 15.3054 5.375 15.2059V14.8309ZM11.375 5.83093H11C10.9005 5.83093 10.8052 5.79142 10.7348 5.7211C10.6645 5.65077 10.625 5.55539 10.625 5.45593V5.08093H11C11.0995 5.08093 11.1948 5.12044 11.2652 5.19077C11.3355 5.26109 11.375 5.35648 11.375 5.45593V5.83093Z" fill="white"/>
</svg>
