<svg width="20" height="20" viewBox="0 0 20 20" fill="none" xmlns="http://www.w3.org/2000/svg">
<rect x="0.875" y="0.830933" width="18.6562" height="18.6562" rx="9.32812" fill="#5C47A4"/>
<path fill-rule="evenodd" clip-rule="evenodd" d="M12.5415 11.849C12.5415 11.5838 12.6469 11.3294 12.8344 11.1419C13.0219 10.9544 13.2763 10.849 13.5415 10.849C13.8067 10.849 14.0611 10.9544 14.2486 11.1419C14.4361 11.3294 14.5415 11.5838 14.5415 11.849V16.1643C14.5415 16.2527 14.5064 16.3375 14.4439 16.4C14.3814 16.4625 14.2966 16.4977 14.2082 16.4977C14.1198 16.4977 14.035 16.4625 13.9725 16.4C13.91 16.3375 13.8748 16.2527 13.8748 16.1643V11.849C13.8748 11.7606 13.8397 11.6758 13.7772 11.6133C13.7147 11.5508 13.6299 11.5157 13.5415 11.5157C13.4531 11.5157 13.3683 11.5508 13.3058 11.6133C13.2433 11.6758 13.2082 11.7606 13.2082 11.849V11.9633C13.2082 12.0517 13.1731 12.1365 13.1105 12.199C13.048 12.2615 12.9632 12.2967 12.8748 12.2967C12.7864 12.2967 12.7016 12.2615 12.6391 12.199C12.5766 12.1365 12.5415 12.0517 12.5415 11.9633V11.849Z" fill="white"/>
<path fill-rule="evenodd" clip-rule="evenodd" d="M7.95984 7.49764C7.30117 7.49764 6.77517 7.71764 6.41384 8.06997C6.24538 8.23368 6.11101 8.42914 6.0185 8.64506C5.92598 8.86098 5.87716 9.09308 5.87484 9.32797C5.87183 9.56285 5.91648 9.79591 6.00609 10.013C6.09569 10.2302 6.22839 10.4269 6.39617 10.5913C6.74384 10.9323 7.2485 11.1473 7.88317 11.1633L8.20817 11.1716V15.5866C8.20817 15.6756 8.3035 15.822 8.5245 15.8306C8.7465 15.8393 8.86384 15.6983 8.87384 15.604L9.19984 12.4976H10.5498L10.8758 15.6043C10.8858 15.6983 11.0032 15.8393 11.2252 15.8306C11.4462 15.822 11.5415 15.6756 11.5415 15.5866V8.24697L12.0128 8.46131C12.3805 8.62831 12.6195 8.84131 12.7775 9.03297C12.9508 9.24397 13.1155 9.53264 13.1585 9.84997L13.1592 9.85664L13.1598 9.86197C13.1772 10.0326 13.3398 10.18 13.5485 10.163C13.7485 10.147 13.8908 9.97431 13.8762 9.80331C13.8615 9.67282 13.8319 9.54444 13.7882 9.42064C13.6915 9.13203 13.5426 8.86367 13.3488 8.62897C12.8628 8.03831 11.9732 7.49764 10.4002 7.49764H7.95984ZM5.9485 7.59264C6.4485 7.10531 7.1485 6.83097 7.95984 6.83097H10.3998C12.1415 6.83097 13.2325 7.43831 13.8638 8.20531C14.1098 8.50336 14.2987 8.84416 14.4212 9.21064C14.4745 9.37197 14.5225 9.55197 14.5398 9.74331V9.74464C14.5908 10.3203 14.1342 10.7846 13.6018 10.8276C13.0565 10.8713 12.5565 10.486 12.4972 9.93564C12.4752 9.78097 12.3858 9.60664 12.2625 9.45664C12.2451 9.43548 12.227 9.41491 12.2082 9.39497V15.5866C12.2082 16.115 11.7428 16.4773 11.2515 16.4966C10.7615 16.516 10.2675 16.1946 10.2128 15.6733L9.9495 13.1643H9.80017L9.53684 15.6736C9.48217 16.1946 8.98817 16.516 8.49817 16.497C8.00684 16.4776 7.5415 16.115 7.5415 15.5866V11.8066C6.89984 11.73 6.34484 11.475 5.92917 11.0666C5.69747 10.8395 5.51415 10.5678 5.39024 10.2679C5.26633 9.96797 5.2044 9.6461 5.20817 9.32164C5.21134 8.99892 5.27836 8.68002 5.40537 8.38333C5.53237 8.08664 5.71685 7.81803 5.94817 7.59297L5.9485 7.59264ZM8.20817 8.14997V10.511L7.86017 10.4956C7.41817 10.4756 7.1145 10.3256 6.9185 10.1333C6.81322 10.0289 6.73017 9.90424 6.67437 9.76686C6.61857 9.62949 6.59118 9.48223 6.59384 9.33397C6.59478 9.18402 6.62537 9.03572 6.68384 8.89763C6.7423 8.75953 6.82749 8.63436 6.9345 8.52931C7.1335 8.33564 7.43417 8.18697 7.85884 8.16664L8.20817 8.14997ZM7.5415 8.91031C7.45802 8.94711 7.38702 9.00737 7.33713 9.08377C7.28725 9.16016 7.26063 9.2494 7.2605 9.34064C7.25917 9.46864 7.30617 9.57997 7.3855 9.65731C7.41684 9.68831 7.46617 9.72631 7.5415 9.75864V8.91031ZM9.87484 3.83097C9.60962 3.83097 9.35527 3.93633 9.16773 4.12387C8.98019 4.3114 8.87484 4.56576 8.87484 4.83097C8.87484 5.09619 8.98019 5.35054 9.16773 5.53808C9.35527 5.72562 9.60962 5.83097 9.87484 5.83097C10.1401 5.83097 10.3944 5.72562 10.5819 5.53808C10.7695 5.35054 10.8748 5.09619 10.8748 4.83097C10.8748 4.56576 10.7695 4.3114 10.5819 4.12387C10.3944 3.93633 10.1401 3.83097 9.87484 3.83097ZM8.20817 4.83097C8.20817 4.38895 8.38376 3.96502 8.69633 3.65246C9.00889 3.3399 9.43281 3.16431 9.87484 3.16431C10.3169 3.16431 10.7408 3.3399 11.0533 3.65246C11.3659 3.96502 11.5415 4.38895 11.5415 4.83097C11.5415 5.273 11.3659 5.69692 11.0533 6.00948C10.7408 6.32205 10.3169 6.49764 9.87484 6.49764C9.43281 6.49764 9.00889 6.32205 8.69633 6.00948C8.38376 5.69692 8.20817 5.273 8.20817 4.83097Z" fill="white"/>
</svg>
