<svg width="20" height="20" viewBox="0 0 20 20" fill="none" xmlns="http://www.w3.org/2000/svg">
<rect x="0.375" y="0.705933" width="18.6562" height="18.6562" rx="9.32812" fill="#113981"/>
<path d="M9.37516 8.53923L7.04183 5.27256L7.97516 3.87256H10.7752L11.7085 5.27256L9.37516 8.53923ZM11.4168 6.67256L10.7168 7.66423C12.0002 8.18923 12.8752 9.41423 12.8752 10.8726C12.8752 11.8008 12.5064 12.6911 11.85 13.3474C11.1937 14.0038 10.3034 14.3726 9.37516 14.3726C8.4469 14.3726 7.55667 14.0038 6.90029 13.3474C6.24391 12.6911 5.87516 11.8008 5.87516 10.8726C5.87516 9.41423 6.75016 8.18923 8.0335 7.66423L7.3335 6.67256C5.7585 7.43089 4.7085 9.00589 4.7085 10.8726C4.7085 12.1102 5.20016 13.2972 6.07533 14.1724C6.9505 15.0476 8.13749 15.5392 9.37516 15.5392C10.6128 15.5392 11.7998 15.0476 12.675 14.1724C13.5502 13.2972 14.0418 12.1102 14.0418 10.8726C14.0418 9.00589 12.9918 7.43089 11.4168 6.67256Z" fill="white"/>
</svg>
