<svg width="20" height="20" viewBox="0 0 20 20" fill="none" xmlns="http://www.w3.org/2000/svg">
<rect x="0.875" y="0.705933" width="18.6562" height="18.6562" rx="9.32812" fill="#AA61B0"/>
<g clip-path="url(#clip0_50_895434)">
<path d="M12.25 14.2934C13.5813 14.0872 15.0625 13.9559 16.625 13.9559V16.4559H6C6 16.0497 8 15.1184 11 14.5184V10.4559C10.475 10.6122 10.0312 10.9622 9.75 11.4247C9.55616 11.1004 9.2815 10.8319 8.95286 10.6454C8.62422 10.459 8.25284 10.361 7.875 10.361C7.49716 10.361 7.12578 10.459 6.79714 10.6454C6.4685 10.8319 6.19384 11.1004 6 11.4247C6.01875 9.18718 8.1875 7.34968 11 7.10593V7.08093C11 6.91517 11.0658 6.7562 11.1831 6.63899C11.3003 6.52178 11.4592 6.45593 11.625 6.45593C11.7908 6.45593 11.9497 6.52178 12.0669 6.63899C12.1842 6.7562 12.25 6.91517 12.25 7.08093V7.10593C15.0625 7.34968 17.225 9.18718 17.25 11.4247C17.0562 11.1004 16.7815 10.8319 16.4529 10.6454C16.1242 10.459 15.7528 10.361 15.375 10.361C14.9972 10.361 14.6258 10.459 14.2971 10.6454C13.9685 10.8319 13.6938 11.1004 13.5 11.4247C13.2188 10.9622 12.775 10.6122 12.25 10.4497V14.2934ZM7.25 3.95593C7.25 4.36631 7.16917 4.77268 7.01212 5.15182C6.85508 5.53096 6.62489 5.87546 6.33471 6.16564C6.04453 6.45582 5.70003 6.68601 5.32089 6.84306C4.94174 7.0001 4.53538 7.08093 4.125 7.08093V3.95593H7.25Z" fill="white"/>
</g>
<defs>
<clipPath id="clip0_50_895434">
<rect width="15" height="15" fill="white" transform="translate(2.875 2.70593)"/>
</clipPath>
</defs>
</svg>
