<svg width="11" height="11" viewBox="0 0 11 11" fill="none" xmlns="http://www.w3.org/2000/svg">
<g id="[icon - Front] Arrow" clip-path="url(#clip0_261_2358)">
<g id="Group">
<g id="Group_2">
<path id="Vector" d="M4.78508 5.73958L8.50735 2.01715C8.60984 1.9149 8.66623 1.77819 8.66623 1.63242C8.66623 1.48657 8.60984 1.34994 8.50735 1.24752L8.18118 0.92152C8.07885 0.818946 7.94206 0.762482 7.79629 0.762482C7.65052 0.762482 7.51389 0.818946 7.41148 0.92152L2.97952 5.3534C2.8767 5.45613 2.8204 5.59341 2.8208 5.73934C2.8204 5.88592 2.87662 6.02304 2.97952 6.12586L7.40735 10.5534C7.50976 10.656 7.64639 10.7125 7.79224 10.7125C7.93802 10.7125 8.07465 10.656 8.17714 10.5534L8.50322 10.2274C8.71541 10.0153 8.71541 9.66983 8.50322 9.45773L4.78508 5.73958Z" fill="#44350D"/>
</g>
</g>
</g>
<defs>
<clipPath id="clip0_261_2358">
<rect width="9.95" height="9.95" fill="white" transform="translate(0.768555 0.762482)"/>
</clipPath>
</defs>
</svg>
