<svg width="16" height="16" viewBox="0 0 16 16" fill="none" xmlns="http://www.w3.org/2000/svg">
<g id="Icon">
<path id="Vector" d="M14.2716 13.1689L11.3312 10.2286C12.0391 9.28622 12.4213 8.13913 12.42 6.96049C12.42 3.94986 9.97062 1.50049 6.96 1.50049C3.94937 1.50049 1.5 3.94986 1.5 6.96049C1.5 9.97111 3.94937 12.4205 6.96 12.4205C8.13865 12.4218 9.28573 12.0396 10.2281 11.3317L13.1684 14.272C13.3173 14.4051 13.5114 14.4761 13.711 14.4705C13.9105 14.4649 14.1004 14.3832 14.2415 14.242C14.3827 14.1008 14.4645 13.911 14.47 13.7114C14.4756 13.5119 14.4046 13.3178 14.2716 13.1689ZM3.06 6.96049C3.06 6.18914 3.28873 5.43511 3.71727 4.79376C4.1458 4.15241 4.7549 3.65254 5.46753 3.35736C6.18016 3.06218 6.96432 2.98494 7.72085 3.13543C8.47738 3.28591 9.17229 3.65735 9.71771 4.20277C10.2631 4.7482 10.6346 5.44311 10.7851 6.19963C10.9355 6.95616 10.8583 7.74032 10.5631 8.45295C10.2679 9.16558 9.76807 9.77468 9.12672 10.2032C8.48537 10.6318 7.73134 10.8605 6.96 10.8605C5.92603 10.8592 4.93478 10.448 4.20365 9.71683C3.47253 8.98571 3.06124 7.99445 3.06 6.96049Z" fill="#44350D"/>
</g>
</svg>
