<svg width="44" height="44" viewBox="0 0 44 44" fill="none" xmlns="http://www.w3.org/2000/svg">
<g id="twemoji:money-bag">
<path id="Vector" d="M38.8295 29.0753C38.1064 21.0728 34.116 17.0582 34.116 17.0582L26.8608 7.3846H17.1872L9.93197 17.0582C9.93197 17.0582 8.21611 18.791 6.82795 22.2275C4.42284 23.0256 2.67676 25.2675 2.67676 27.941C2.6778 28.7722 2.85124 29.5941 3.18613 30.3549C3.52102 31.1156 4.01006 31.7986 4.62236 32.3607C4.14547 33.2301 3.8924 34.2046 3.88596 35.1962C3.88596 37.5639 5.25961 39.5929 7.24149 40.5844C8.7929 42.9085 10.8655 43.6606 12.3504 43.6606H31.6976C33.3651 43.6606 35.7762 42.7187 37.3542 39.6582C39.6892 38.8226 41.3712 36.611 41.3712 33.987C41.37 33.0249 41.1386 32.0771 40.6965 31.2227C40.2543 30.3682 39.6142 29.6319 38.8295 29.0753ZM22.024 7.3846C22.689 7.3846 23.3033 7.19355 23.8378 6.88158C24.3735 7.19355 24.9877 7.3846 25.6516 7.3846C27.6552 7.3846 30.4884 4.55023 30.4884 2.5478C30.4884 2.5478 30.4884 0.129395 28.07 0.129395C27.1171 0.129395 26.8608 1.3386 25.6516 1.3386C24.4424 1.3386 24.4424 0.129395 22.024 0.129395C19.6056 0.129395 19.6056 1.3386 18.3964 1.3386C17.1872 1.3386 16.932 0.129395 15.978 0.129395C13.5596 0.129395 13.5596 2.5478 13.5596 2.5478C13.5596 4.55023 16.3939 7.3846 18.3964 7.3846C19.0602 7.3846 19.6745 7.19355 20.2102 6.88158C20.7459 7.19355 21.3601 7.3846 22.024 7.3846Z" fill="#FDD888"/>
<path id="Vector_2" d="M29.279 7.38462C29.279 7.70532 29.1516 8.01288 28.9248 8.23965C28.698 8.46642 28.3905 8.59382 28.0698 8.59382H15.9778C15.6571 8.59382 15.3495 8.46642 15.1227 8.23965C14.896 8.01288 14.7686 7.70532 14.7686 7.38462C14.7686 7.06392 14.896 6.75635 15.1227 6.52958C15.3495 6.30281 15.6571 6.17542 15.9778 6.17542H28.0698C28.3905 6.17542 28.698 6.30281 28.9248 6.52958C29.1516 6.75635 29.279 7.06392 29.279 7.38462Z" fill="#BF6952"/>
<path id="Vector_3" d="M29.159 29.8056C29.159 24.392 18.7828 24.7451 18.7828 21.479C18.7828 19.8974 20.356 19.1247 22.1819 19.1247C25.2509 19.1247 25.7974 21.022 27.1868 21.022C28.1699 21.022 28.6439 20.4258 28.6439 19.7571C28.6439 18.2045 26.1965 17.0292 23.8494 16.6229V15.1235C23.8494 14.1888 23.0634 13.4306 22.0912 13.4306C21.1178 13.4306 20.3306 14.1888 20.3306 15.1235V16.6749C17.772 17.2348 15.57 18.9421 15.57 21.7245C15.57 26.9229 25.9437 26.7125 25.9437 30.3643C25.9437 31.6303 24.5193 32.8951 22.1819 32.8951C18.674 32.8951 17.5059 30.6109 16.0815 30.6109C15.3874 30.6109 14.7671 31.172 14.7671 32.0184C14.7671 33.3643 17.1105 34.9822 20.333 35.4332L20.3318 35.4453V37.1358C20.3318 38.0693 21.1202 38.8287 22.0924 38.8287C23.0646 38.8287 23.8518 38.0693 23.8518 37.1358V35.4453C23.8518 35.4248 23.8421 35.409 23.8409 35.3909C26.7406 34.871 29.159 33.0547 29.159 29.8056Z" fill="#67757F"/>
</g>
</svg>
